<?xml version="1.0" standalone="no"?>
<!DOCTYPE svg PUBLIC "-//W3C//DTD SVG 20010904//EN"
 "http://www.w3.org/TR/2001/REC-SVG-20010904/DTD/svg10.dtd">
<svg version="1.0" xmlns="http://www.w3.org/2000/svg"
 width="690.000000pt" height="690.000000pt" viewBox="0 0 690.000000 690.000000"
 preserveAspectRatio="xMidYMid meet">
<metadata>
Created by potrace 1.14, written by Peter Selinger 2001-2017
</metadata>
<g transform="translate(0.000000,690.000000) scale(0.100000,-0.100000)"
fill="#000000" stroke="none">
<path d="M4705 5261 c-104 -26 -198 -119 -220 -220 -3 -12 -7 -31 -10 -43 -7
-28 -7 -151 -1 -194 17 -117 77 -261 144 -344 52 -63 67 -76 150 -116 62 -30
83 -36 143 -36 116 -1 219 63 291 178 99 158 106 414 17 561 -89 145 -350 253
-514 214z"/>
<path d="M2754 5054 c-50 -18 -104 -67 -130 -120 -20 -41 -27 -181 -11 -236 6
-24 4 -28 -13 -28 -11 0 -32 -7 -45 -16 -29 -19 -97 -129 -144 -234 -19 -41
-35 -77 -37 -79 -2 -2 -22 17 -45 42 -36 40 -41 52 -43 96 -3 85 -80 160 -177
169 -43 4 -62 13 -104 47 -179 145 -382 218 -605 217 -266 -2 -360 -114 -265
-316 62 -131 169 -182 389 -185 142 -3 206 -8 268 -20 48 -10 56 -15 66 -45 7
-19 35 -63 63 -98 57 -71 79 -108 79 -135 0 -38 -16 -46 -89 -48 -78 -1 -105
-16 -114 -65 -12 -58 24 -124 85 -156 47 -24 137 -28 203 -9 107 31 165 118
150 224 -6 44 -18 70 -61 137 l-19 29 31 -25 c111 -90 103 -78 88 -125 -16
-54 -11 -137 9 -169 33 -50 127 -58 181 -15 14 11 30 19 35 17 16 -5 131 -140
170 -198 21 -30 45 -74 54 -98 16 -40 24 -122 11 -122 -3 0 -16 13 -30 29 -32
39 -93 52 -222 50 -171 -3 -252 -29 -318 -101 -34 -39 -41 -41 -93 -43 -163
-4 -313 -167 -286 -312 14 -77 110 -140 224 -146 34 -2 64 -7 68 -11 4 -3 8
-23 10 -44 1 -20 5 -51 8 -67 13 -76 124 -128 198 -94 42 19 52 52 49 164 -3
138 7 149 116 131 56 -9 95 0 124 28 19 19 33 23 76 22 l54 -1 24 -77 c30 -96
95 -186 161 -225 44 -25 57 -28 143 -28 122 0 188 27 247 102 l39 50 41 -28
c24 -17 50 -47 62 -72 20 -41 51 -65 102 -81 25 -7 96 -105 188 -259 46 -76
89 -141 97 -144 8 -3 27 -31 42 -62 31 -63 26 -56 88 -136 110 -141 297 -292
454 -367 114 -55 434 -139 585 -154 56 -5 216 -6 240 -1 11 3 47 8 80 11 136
15 289 62 423 129 96 49 342 228 427 312 85 83 111 139 101 210 -13 81 -95
140 -170 121 -25 -6 -72 -47 -117 -102 -40 -49 -61 -51 -107 -9 -69 62 -96
156 -66 230 27 70 113 134 186 140 262 20 374 53 426 125 56 76 51 150 -15
211 -42 40 -94 53 -187 46 -132 -10 -271 -63 -382 -147 -58 -44 -80 -84 -139
-255 -73 -213 -134 -322 -235 -423 -101 -100 -184 -126 -268 -83 -98 50 -180
205 -208 391 -10 70 -12 272 -3 340 15 105 19 121 71 274 45 133 51 161 52
236 1 99 -20 151 -80 196 -29 23 -46 28 -88 27 -60 -1 -99 -18 -144 -64 -54
-55 -59 -134 -16 -262 39 -116 40 -227 2 -284 -24 -37 -60 -61 -114 -77 -20
-6 -22 -3 -22 46 0 58 -15 118 -56 218 -15 36 -29 83 -32 105 -21 152 -66 346
-87 373 -10 12 -11 57 -8 220 l1 73 36 -27 c64 -49 174 -33 214 30 49 80 21
197 -110 458 -128 255 -174 300 -261 257 -39 -19 -74 -68 -133 -185 -20 -40
-44 -78 -53 -85 -23 -20 -52 -88 -53 -124 0 -39 -10 -75 -20 -75 -4 0 -34 15
-66 33 l-58 32 -2 83 c-1 74 1 82 17 83 11 1 22 2 27 3 4 1 23 5 43 9 58 12
87 58 75 122 -5 27 -15 37 -53 55 -41 19 -58 21 -164 16 -106 -4 -119 -3 -120
12 -1 50 -13 114 -33 172 -35 106 -100 131 -185 70 -62 -44 -78 -124 -46 -230
15 -49 22 -91 24 -154 1 -27 65 -86 94 -86 34 0 51 -44 43 -112 -8 -62 -32
-92 -84 -105 -140 -34 -302 104 -338 287 -3 19 -15 54 -25 77 -11 23 -19 47
-19 52 0 6 -16 58 -35 116 -88 267 -241 389 -411 329z m-204 -510 c0 -3 -18
-44 -40 -90 -22 -47 -40 -89 -40 -94 0 -6 -7 -10 -15 -10 -19 0 -19 9 3 56 40
86 73 144 82 144 6 0 10 -3 10 -6z m1760 -4 c0 -19 -48 -95 -63 -98 -12 -2
-10 6 7 40 12 24 25 49 30 56 9 14 26 16 26 2z m-740 -30 c0 -5 -2 -10 -4 -10
-3 0 -8 5 -11 10 -3 6 -1 10 4 10 6 0 11 -4 11 -10z m-917 -120 c12 -45 -64
-64 -78 -20 -8 24 1 39 29 50 24 9 41 -2 49 -30z m1756 11 c5 -9 5 -25 1 -36
l-8 -20 -8 20 c-4 11 -16 26 -26 33 -10 7 -16 17 -13 22 8 12 44 0 54 -19z
m-1472 -78 c30 -26 33 -33 38 -113 11 -160 15 -190 35 -244 37 -97 92 -134
206 -136 102 -3 104 -4 99 -54 -4 -56 -25 -95 -70 -134 -62 -55 -81 -61 -177
-53 -79 6 -91 10 -144 46 -72 50 -158 150 -270 315 -87 129 -87 129 -70 155
10 14 25 25 34 23 22 -4 49 -55 56 -105 12 -93 59 -137 141 -136 93 1 145 49
149 137 2 60 -36 177 -103 315 -17 36 -31 66 -31 69 0 4 49 -35 107 -85z
m-500 -29 c-9 -9 -28 6 -21 18 4 6 10 6 17 -1 6 -6 8 -13 4 -17z m483 -289
c-4 -19 -14 -40 -22 -48 -19 -19 -58 -39 -58 -30 0 5 10 13 22 18 21 9 40 38
52 78 10 31 14 18 6 -18z m1759 -8 c-9 -31 -23 -47 -61 -68 -11 -6 -18 -6 -18
-1 0 6 9 12 19 15 22 5 51 47 54 75 0 12 4 19 8 16 4 -2 3 -19 -2 -37z m-2489
-45 c0 -32 -86 -91 -134 -92 -28 0 -9 15 36 30 21 6 48 24 60 40 23 28 38 37
38 22z m120 -462 c0 -11 -5 -20 -11 -20 -6 0 -28 -13 -49 -30 -47 -37 -94 -42
-57 -6 21 21 99 76 109 76 4 0 8 -9 8 -20z m2282 -555 c-2 -14 -8 -25 -13 -25
-5 0 -4 11 1 24 5 13 6 27 2 32 -4 4 -2 4 4 1 6 -4 9 -18 6 -32z m-2282 -114
c0 -24 -25 -51 -47 -51 -11 0 -7 6 11 21 14 11 26 27 26 35 0 8 2 14 5 14 3 0
5 -9 5 -19z"/>
<path d="M5645 4735 c-146 -33 -301 -229 -313 -395 -3 -53 0 -82 13 -117 25
-64 89 -126 148 -142 147 -42 351 58 424 206 62 128 14 322 -101 410 -54 41
-106 53 -171 38z"/>
<path d="M4950 4162 c-76 -34 -97 -102 -66 -206 69 -227 309 -222 322 7 5 86
-28 144 -100 181 -50 26 -121 34 -156 18z"/>
<path d="M707 3795 c-100 -37 -149 -118 -118 -197 15 -38 73 -90 131 -117 104
-48 219 -24 251 51 37 90 -21 210 -126 259 -47 22 -86 23 -138 4z"/>
<path d="M1305 3624 c-130 -41 -208 -148 -208 -286 0 -200 147 -292 328 -204
39 18 93 54 122 80 142 129 142 324 0 398 -55 28 -172 34 -242 12z"/>
<path d="M774 3076 c-49 -22 -86 -78 -87 -130 -1 -93 47 -142 126 -124 128 28
201 162 127 233 -36 34 -115 44 -166 21z"/>
</g>
</svg>
